;Layer: Drill PTH
;EasyEDA v6.4.7, 2021-02-21T20:01:47+05:30
;e3d0b1098bfb4b77ab9dba27c3ae41cd,c102caab13844b3dbbbf78dac792161f,10
;Gerber Generator version 0.2
M48
INCH,LZ,00.0000
;Holesize 1 = 0.035 INCH
T01C0.035
;Holesize 2 = 0.036 INCH
T02C0.036
;Holesize 3 = 0.039 INCH
T03C0.039
;Holesize 4 = 0.043 INCH
T04C0.043
;Holesize 5 = 0.047 INCH
T05C0.047
;Holesize 6 = 0.055 INCH
T06C0.055
%
G05
G90
T01
X+007800Y+022250
X+011800Y+022250
X+019389Y+014364
X+019389Y+010364
X+017239Y+014964
X+017239Y+018964
X+019850Y+017550
X+019850Y+021550
T02
X+010700Y+002200
X+016200Y+002200
X+010700Y+012400
X+016200Y+012400
X+022778Y+003600
X+022778Y+004600
X+022778Y+005600
X+022778Y+006600
X+022778Y+007600
X+022778Y+008600
X+022778Y+009600
X+022778Y+010600
X+022778Y+011600
X+022778Y+012600
X+022778Y+013600
X+022778Y+014600
X+022778Y+015600
X+022778Y+016600
X+022778Y+017600
X+032621Y+003600
X+032621Y+004600
X+032621Y+005600
X+032621Y+006600
X+032621Y+007600
X+032621Y+008600
X+032621Y+009600
X+032621Y+010600
X+032621Y+011600
X+032621Y+012600
X+032621Y+013600
X+032621Y+014600
X+032621Y+015600
X+032621Y+016600
X+032621Y+017600
X+003450Y+019150
X+002450Y+019150
X+007550Y+018950
X+006550Y+018950
X+011439Y+019064
X+010439Y+019064
T03
X+026523Y+022200
X+027507Y+022199
X+028492Y+022199
X+029476Y+022199
X+018489Y+008564
X+019489Y+008564
X+020489Y+008564
X+006950Y+014600
X+007950Y+014600
X+002850Y+014550
X+003850Y+014550
X+019039Y+003964
X+019039Y+002964
X+011028Y+015514
X+014650Y+015514
T04
X+005364Y+025969
X+007135Y+025969
X+005364Y+028530
X+007135Y+028530
X+029435Y+028530
X+027664Y+028530
X+029435Y+025969
X+027664Y+025969
T05
X+002150Y+001900
X+007550Y+001900
X+007550Y+010900
X+002150Y+010900
X+003350Y+010900
X+006350Y+010900
T06
X+016100Y+022250
X+017100Y+022250
X+015100Y+022250
X+003700Y+022400
X+004700Y+022400
X+002700Y+022400
M30
