G04 Layer: TopSolderMaskLayer*
G04 EasyEDA v6.4.7, 2021-02-21T20:01:47+05:30*
G04 e3d0b1098bfb4b77ab9dba27c3ae41cd,c102caab13844b3dbbbf78dac792161f,10*
G04 Gerber Generator version 0.2*
G04 Scale: 100 percent, Rotated: No, Reflected: No *
G04 Dimensions in inches *
G04 leading zeros omitted , absolute positions ,2 integer and 4 decimal *
%FSLAX24Y24*%
%MOIN*%
G90*
D02*

%ADD26C,0.078866*%
%ADD27C,0.086740*%
%ADD30C,0.070992*%
%ADD34C,0.082000*%
%ADD35C,0.068000*%

%LPD*%
G54D26*
G01X18489Y8564D02*
G01X18489Y8564D01*
G01X19489Y8564D02*
G01X19489Y8564D01*
G54D27*
G01X16100Y22348D02*
G01X16100Y22151D01*
G01X17100Y22348D02*
G01X17100Y22151D01*
G01X3700Y22498D02*
G01X3700Y22301D01*
G01X4700Y22498D02*
G01X4700Y22301D01*
G36*
G01X10265Y1568D02*
G01X10265Y2831D01*
G01X11134Y2831D01*
G01X11134Y1568D01*
G01X10265Y1568D01*
G37*
G36*
G01X15765Y1568D02*
G01X15765Y2831D01*
G01X16634Y2831D01*
G01X16634Y1568D01*
G01X15765Y1568D01*
G37*
G36*
G01X10265Y11768D02*
G01X10265Y13030D01*
G01X11134Y13030D01*
G01X11134Y11768D01*
G01X10265Y11768D01*
G37*
G36*
G01X15765Y11768D02*
G01X15765Y13030D01*
G01X16634Y13030D01*
G01X16634Y11768D01*
G01X15765Y11768D01*
G37*
G36*
G01X26168Y21844D02*
G01X26168Y22555D01*
G01X26878Y22555D01*
G01X26878Y21844D01*
G01X26168Y21844D01*
G37*
G54D30*
G01X27507Y22200D03*
G01X28492Y22200D03*
G01X29476Y22200D03*
G36*
G01X20094Y8169D02*
G01X20094Y8959D01*
G01X20882Y8959D01*
G01X20882Y8169D01*
G01X20094Y8169D01*
G37*
G36*
G01X6594Y14244D02*
G01X6594Y14955D01*
G01X7305Y14955D01*
G01X7305Y14244D01*
G01X6594Y14244D01*
G37*
G01X7950Y14600D03*
G36*
G01X2494Y14194D02*
G01X2494Y14905D01*
G01X3205Y14905D01*
G01X3205Y14194D01*
G01X2494Y14194D01*
G37*
G01X3850Y14550D03*
G36*
G01X18684Y3610D02*
G01X18684Y4319D01*
G01X19393Y4319D01*
G01X19393Y3610D01*
G01X18684Y3610D01*
G37*
G01X19039Y2964D03*
G54D26*
G01X5364Y25969D03*
G01X7135Y25969D03*
G01X5364Y28530D03*
G01X7135Y28530D03*
G01X29435Y28530D03*
G01X27664Y28530D03*
G01X29435Y25969D03*
G01X27664Y25969D03*
G54D27*
G01X22778Y3600D03*
G01X22778Y4600D03*
G01X22778Y5600D03*
G01X22778Y6600D03*
G01X22778Y7600D03*
G01X22778Y8600D03*
G01X22778Y9600D03*
G01X22778Y10600D03*
G01X22778Y11600D03*
G01X22778Y12600D03*
G01X22778Y13600D03*
G01X22778Y14600D03*
G01X22778Y15600D03*
G01X22778Y16600D03*
G01X22778Y17600D03*
G01X32621Y3600D03*
G01X32621Y4600D03*
G01X32621Y5600D03*
G01X32621Y6600D03*
G01X32621Y7600D03*
G01X32621Y8600D03*
G01X32621Y9600D03*
G01X32621Y10600D03*
G01X32621Y11600D03*
G01X32621Y12600D03*
G01X32621Y13600D03*
G01X32621Y14600D03*
G01X32621Y15600D03*
G01X32621Y16600D03*
G01X32621Y17600D03*
G36*
G01X14665Y21717D02*
G01X14665Y22782D01*
G01X15534Y22782D01*
G01X15534Y21717D01*
G01X14665Y21717D01*
G37*
G36*
G01X14482Y19192D02*
G01X14482Y19667D01*
G01X14996Y19667D01*
G01X14996Y19192D01*
G01X14482Y19192D01*
G37*
G36*
G01X14482Y18563D02*
G01X14482Y19036D01*
G01X14996Y19036D01*
G01X14996Y18563D01*
G01X14482Y18563D01*
G37*
G36*
G01X2265Y21867D02*
G01X2265Y22932D01*
G01X3134Y22932D01*
G01X3134Y21867D01*
G01X2265Y21867D01*
G37*
G54D34*
G01X7800Y22250D03*
G01X11800Y22250D03*
G01X19389Y14364D03*
G01X19389Y10364D03*
G01X17239Y14964D03*
G01X17239Y18964D03*
G01X19850Y17550D03*
G01X19850Y21550D03*
G54D26*
G01X11028Y15514D03*
G01X14650Y15514D03*
G54D35*
G01X3450Y19150D03*
G01X2450Y19150D03*
G01X7550Y18950D03*
G01X6550Y18950D03*
G01X11439Y19064D03*
G01X10439Y19064D03*
G36*
G01X1618Y1368D02*
G01X1618Y2431D01*
G01X2681Y2431D01*
G01X2681Y1368D01*
G01X1618Y1368D01*
G37*
G36*
G01X7018Y1368D02*
G01X7018Y2431D01*
G01X8081Y2431D01*
G01X8081Y1368D01*
G01X7018Y1368D01*
G37*
G36*
G01X7018Y10368D02*
G01X7018Y11431D01*
G01X8081Y11431D01*
G01X8081Y10368D01*
G01X7018Y10368D01*
G37*
G36*
G01X1618Y10368D02*
G01X1618Y11431D01*
G01X2681Y11431D01*
G01X2681Y10368D01*
G01X1618Y10368D01*
G37*
G36*
G01X2818Y10368D02*
G01X2818Y11431D01*
G01X3881Y11431D01*
G01X3881Y10368D01*
G01X2818Y10368D01*
G37*
G36*
G01X5818Y10368D02*
G01X5818Y11431D01*
G01X6881Y11431D01*
G01X6881Y10368D01*
G01X5818Y10368D01*
G37*
M00*
M02*
